<svg enable-background="new 0 0 512 512" viewBox="0 0 512 512" xmlns="http://www.w3.org/2000/svg"><g id="_x31_1_Planet"><g><circle cx="340.513" cy="104.028" fill="#fd6a88" r="82.502"/><path d="m423.013 104.027c0 45.607-36.925 82.483-82.483 82.483-11.17 0-21.853-2.244-31.608-6.292 29.901-12.39 50.876-41.803 50.876-76.191 0-34.34-20.975-63.801-50.876-76.191 9.756-4.048 20.438-6.292 31.608-6.292 45.558 0 82.483 36.925 82.483 82.483z" opacity=".15"/><path d="m365.363 256.466v1.893c0 89.413-72.468 161.881-161.881 161.881-68.634 0-127.327-42.742-150.899-103.092-2.461-6.343-4.544-12.875-6.201-19.596-1.609-6.39-2.793-12.922-3.597-19.596-.805-6.437-1.183-12.969-1.183-19.596 0-12.307 1.373-24.33 4.024-35.832 3.077-13.822 7.999-26.98 14.389-39.192 27.028-51.641 81.13-86.857 143.468-86.857 75.213 0 138.451 51.262 156.58 120.795 3.312 12.543 5.111 25.655 5.3 39.192z" fill="#fce270"/><path d="m365.363 256.466h-57.747c-10.839 0-19.596-8.757-19.596-19.596s8.757-19.596 19.596-19.596h52.446c3.313 12.543 5.112 25.655 5.301 39.192z" fill="#fff"/><path d="m365.358 256.458v1.902c0 89.41-72.484 161.894-161.894 161.894-10.194 0-20.194-.927-29.852-2.78 75.069-14.048 131.895-79.947 131.895-159.113v-1.902c-.146-13.512-1.951-26.633-5.268-39.169-15.658-60.094-65.021-106.531-126.627-118.042 9.658-1.854 19.658-2.78 29.852-2.78 75.216 0 138.48 51.266 156.577 120.823 3.317 12.534 5.122 25.656 5.317 39.167z" opacity=".15"/><path d="m194.962 297.551c0 10.839-8.757 19.596-19.596 19.596h-122.783c-2.461-6.343-4.544-12.875-6.201-19.596-1.609-6.39-2.793-12.922-3.597-19.596h132.581c10.84 0 19.596 8.757 19.596 19.596z" fill="#fff"/><path d="m143.842 202.932c0 10.839-8.757 19.596-19.596 19.596h-78.621c3.077-13.822 7.999-26.98 14.389-39.192h64.232c10.839-.001 19.596 8.756 19.596 19.596z" fill="#fff"/><ellipse cx="203.482" cy="440.075" fill="#fff" rx="59.827" ry="59.827" transform="matrix(.851 -.526 .526 .851 -200.971 172.702)"/><path d="m172.628 388.882c-4.069 2.457-7.937 5.376-11.45 8.888-5.615 5.615-9.845 12.079-12.763 18.966 17.202 6.45 29.787 20.291 39.203 39.203 8.3 14.918 22.046 27.722 39.203 39.203 6.886-2.917 13.35-7.148 18.966-12.763 3.513-3.513 6.432-7.381 8.888-11.45-18.534-10.264-33.114-23.303-41.023-41.023-7.976-16.503-22.415-29.798-41.024-41.024z" fill="#5899fe"/><path d="m245.803 482.397c-15.95 15.95-38.681 21.023-58.875 15.121 9.365-2.683 18.243-7.756 25.657-15.121 23.365-23.413 23.365-61.265 0-84.629-7.414-7.414-16.292-12.487-25.657-15.17 20.194-5.853 42.924-.781 58.875 15.17 23.365 23.364 23.365 61.216 0 84.629z" opacity=".15"/><path d="m423.924 358.227 6.536 13.243c.147.299.433.506.763.554l14.615 2.124c.831.121 1.162 1.142.561 1.727l-10.575 10.308c-.239.233-.348.568-.291.896l2.496 14.555c.142.827-.726 1.458-1.469 1.068l-13.072-6.872c-.295-.155-.647-.155-.943 0l-13.072 6.872c-.743.391-1.611-.24-1.469-1.068l2.496-14.555c.056-.329-.053-.664-.291-.896l-10.575-10.308c-.601-.586-.269-1.607.561-1.727l14.615-2.124c.33-.048.615-.255.763-.554l6.536-13.243c.37-.753 1.443-.753 1.815 0z" fill="#fce270"/><path d="m447.613 197.152 6.536 13.243c.148.299.433.506.763.554l14.615 2.124c.831.121 1.162 1.142.561 1.727l-10.575 10.308c-.239.233-.348.568-.291.896l2.496 14.555c.142.827-.726 1.458-1.469 1.068l-13.072-6.872c-.295-.155-.648-.155-.943 0l-13.072 6.872c-.743.391-1.611-.24-1.469-1.068l2.496-14.555c.056-.329-.053-.664-.291-.896l-10.576-10.308c-.601-.586-.269-1.607.561-1.727l14.615-2.124c.33-.048.615-.255.763-.554l6.536-13.243c.371-.753 1.445-.753 1.816 0z" fill="#fce270"/><path d="m111.365 12.694 6.536 13.243c.148.299.433.506.763.554l14.615 2.124c.831.121 1.162 1.142.561 1.727l-10.575 10.308c-.239.233-.348.568-.291.896l2.496 14.555c.142.827-.726 1.458-1.469 1.068l-13.072-6.872c-.295-.155-.648-.155-.943 0l-13.072 6.873c-.743.391-1.611-.24-1.469-1.068l2.496-14.555c.056-.329-.053-.664-.291-.896l-10.575-10.308c-.601-.586-.269-1.607.561-1.727l14.615-2.124c.33-.048.615-.255.763-.554l6.536-13.243c.371-.753 1.444-.753 1.815-.001z" fill="#fce270"/><g fill="#520001"><path d="m357.302 190.83c40.824-7.887 71.812-43.707 71.812-86.801 0-48.854-39.746-88.6-88.6-88.6-46.683 0-84.958 36.317-88.275 82.169-15.514-4.701-31.899-7.216-48.756-7.216-93.938 0-167.979 76.253-167.979 167.979 0 68.975 41.924 131.296 107.134 156.402-9.911 23.914-5.184 52.514 14.23 71.927 12.852 12.852 29.734 19.278 46.615 19.278 14.08 0 27.698-4.403 39.402-13.134 24.421-18.251 32.822-50.521 21.481-77.99 67.145-26.212 112.551-93.853 106.551-169.685-1.444-18.237-5.783-36.432-13.615-54.329zm-2.086 32.54c2.291 9.907 3.261 17.043 3.78 26.999h-51.379c-7.443 0-13.5-6.057-13.5-13.5s6.057-13.5 13.5-13.5h47.599zm-14.703-195.747c42.13 0 76.406 34.275 76.406 76.406 0 38.282-28.341 69.949-65.124 75.429-18.976-35.724-50.232-63.245-87.572-77.723 1.228-41.064 34.934-74.112 76.29-74.112zm-276.675 161.81h60.407c7.443 0 13.5 6.057 13.5 13.5s-6.057 13.497-13.5 13.497h-70.754c3.067-11.062 6.369-18.946 10.347-26.997zm-6.939 121.618c-3.681-10.276-5.444-17.42-7.026-26.999h125.493c7.443 0 13.5 6.057 13.5 13.5s-6.057 13.5-13.5 13.5h-118.467zm108.591 167.017c-14.35-14.35-18.861-34.861-13.552-53.095 12.151 6.265 22.099 17.363 30.353 33.931 6.687 12.017 16.913 23.196 30.955 33.966-16.8 3.082-34.792-1.838-47.756-14.802zm7.079-81.876c.044-.031.087-.065.132-.097 17.299 10.972 28.915 22.918 35.383 36.296 7.137 15.99 19.559 29.289 37.872 40.515-5.132 6.663-11.386 11.678-18.571 15.243-16.292-11.308-27.569-22.823-34.309-34.927-9.532-19.144-21.468-32.135-36.352-39.516 4.126-7.329 9.469-13.067 15.845-17.514zm79.706 66.237c-16.093-9.891-26.977-21.389-33.133-35.175-6.77-14.008-18.023-26.358-34.135-37.569 5.956-2.173 12.208-3.316 18.475-3.316 13.759 0 27.519 5.237 37.993 15.712 16.297 16.296 19.857 40.52 10.8 60.348zm6.37-58.448c-2.437-3.722-5.279-7.254-8.547-10.522-29.871-29.871-79.415-23.775-101.794 10.551-21.04-7.898-40.038-20.225-55.765-36.176h51.303c3.368 0 6.097-2.729 6.097-6.097s-2.729-6.097-6.097-6.097h-62.117c-7.811-9.803-14.549-20.625-19.931-32.394h113.573c14.169 0 25.694-11.525 25.694-25.694s-11.525-25.694-25.694-25.694h-127.023c-1.181-13.577-.852-27.295 2.277-43.233h73.624c14.169 0 25.694-11.525 25.694-25.692 0-14.169-11.525-25.694-25.694-25.694h-53.761c5.192-8.522 11.161-16.395 17.727-23.636h97.947c3.368 0 6.097-2.729 6.097-6.097s-2.729-6.097-6.097-6.097h-85.565c27.945-24.622 64.227-38.832 102.89-38.832 68.197 0 128.123 44.265 148.456 108.6h-44.322c-14.169 0-25.694 11.525-25.694 25.694s11.525 25.694 25.694 25.694h51.483c-.265 9.887-1.44 19.541-3.473 28.89h-97.617c-3.368 0-6.097 2.729-6.097 6.097s2.729 6.097 6.097 6.097h94.453c-4.337 14.236-10.672 27.583-18.66 39.777h-53.817c-3.368 0-6.097 2.729-6.097 6.097s2.729 6.097 6.097 6.097h45c-17.274 21.533-40.107 38.389-66.341 48.361z"/><path d="m446.712 368.115-11.968-1.741-5.352-10.846c-1.208-2.444-3.651-3.963-6.378-3.963-2.725 0-5.168 1.52-6.376 3.963l-5.352 10.846-11.956 1.739c-2.701.386-4.902 2.236-5.749 4.83-.846 2.594-.16 5.39 1.796 7.298l8.662 8.443-2.048 11.93c-.457 2.687.631 5.347 2.834 6.948 2.212 1.603 5.084 1.803 7.483.538l10.706-5.628 10.708 5.628c2.408 1.265 5.276 1.062 7.483-.538 2.203-1.601 3.292-4.261 2.832-6.957l-2.044-11.921 8.662-8.446c1.953-1.905 2.639-4.702 1.793-7.295-.846-2.594-3.047-4.444-5.736-4.828zm-15.157 13.714c-1.672 1.639-2.429 3.992-2.032 6.283l.755 4.401-3.944-2.072c-2.033-1.079-4.516-1.116-6.626-.007l-3.954 2.077.76-4.428c.383-2.306-.386-4.652-2.051-6.266l-3.199-3.118 4.418-.641c2.313-.336 4.313-1.786 5.357-3.889l1.974-4.006 1.984 4.018c1.036 2.091 3.037 3.542 5.347 3.875l4.421.643z"/><path d="m476.146 211.886c-.841-2.594-3.037-4.451-5.742-4.847l-11.971-1.739-5.352-10.846c-1.208-2.444-3.651-3.963-6.376-3.963s-5.168 1.52-6.374 3.963l-5.357 10.846-11.973 1.739c-2.696.393-4.894 2.248-5.735 4.84-.843 2.591-.155 5.383 1.798 7.288l8.662 8.443-2.044 11.913c-.462 2.689.619 5.354 2.825 6.959 2.208 1.61 5.078 1.815 7.493.543l10.703-5.63 10.706 5.63c2.399 1.262 5.272 1.07 7.491-.543 2.206-1.605 3.287-4.27 2.825-6.955l-2.044-11.918 8.655-8.438c1.955-1.898 2.648-4.692 1.81-7.285zm-20.878 8.845c-1.689 1.639-2.456 3.999-2.055 6.304l.755 4.401-3.958-2.082c-2.069-1.087-4.533-1.086-6.614.002l-3.951 2.079.753-4.387c.403-2.32-.364-4.68-2.041-6.307l-3.199-3.118 4.411-.641c2.322-.333 4.328-1.791 5.359-3.892l1.979-4.004 1.972 3.997c1.036 2.105 3.039 3.561 5.357 3.897l4.421.643z"/><path d="m91.48 43.152-2.044 11.913c-.464 2.687.617 5.354 2.822 6.957 2.213 1.608 5.085 1.817 7.495.545l10.703-5.63 10.706 5.63c2.37 1.247 5.245 1.089 7.493-.545 2.205-1.603 3.287-4.27 2.822-6.95l-2.044-11.921 8.655-8.438c1.955-1.903 2.648-4.697 1.803-7.295-.843-2.596-3.046-4.449-5.738-4.835l-11.971-1.741-5.352-10.846c-1.208-2.444-3.651-3.963-6.376-3.963s-5.168 1.52-6.376 3.963l-5.348 10.846-11.959 1.739c-2.703.386-4.906 2.241-5.75 4.837-.846 2.596-.155 5.392 1.798 7.29zm11.639-10.625c2.322-.336 4.33-1.791 5.364-3.892l1.974-4.004 1.972 3.997c1.036 2.108 3.044 3.563 5.359 3.897l4.418.643-3.211 3.13c-1.672 1.636-2.429 3.992-2.032 6.281l.755 4.401-3.958-2.082c-2.069-1.087-4.533-1.086-6.614.002l-3.951 2.079.753-4.387c.4-2.303-.357-4.659-2.041-6.307l-3.199-3.118z"/></g></g></g><g id="Layer_1"/></svg>